<svg xmlns="http://www.w3.org/2000/svg" xmlns:xlink="http://www.w3.org/1999/xlink" width="1080" zoomAndPan="magnify" viewBox="0 0 810 809.999993" height="1080" preserveAspectRatio="xMidYMid meet" version="1.0"><defs><clipPath id="f91c3f4924"><path d="M 0 0 L 810 0 L 810 810 L 0 810 Z M 0 0 " clip-rule="nonzero"/></clipPath><clipPath id="b0249c76cd"><path d="M 7.5 0 L 802.5 0 C 804.488281 0 806.398438 0.789062 807.804688 2.195312 C 809.210938 3.601562 810 5.511719 810 7.5 L 810 802.5 C 810 804.488281 809.210938 806.398438 807.804688 807.804688 C 806.398438 809.210938 804.488281 810 802.5 810 L 7.5 810 C 5.511719 810 3.601562 809.210938 2.195312 807.804688 C 0.789062 806.398438 0 804.488281 0 802.5 L 0 7.5 C 0 5.511719 0.789062 3.601562 2.195312 2.195312 C 3.601562 0.789062 5.511719 0 7.5 0 Z M 7.5 0 " clip-rule="nonzero"/></clipPath><clipPath id="4235ad8a05"><path d="M 0 0 L 810 0 L 810 810 L 0 810 Z M 0 0 " clip-rule="nonzero"/></clipPath><clipPath id="6ab72be0b9"><path d="M 7.5 0 L 802.5 0 C 804.488281 0 806.398438 0.789062 807.804688 2.195312 C 809.210938 3.601562 810 5.511719 810 7.5 L 810 802.5 C 810 804.488281 809.210938 806.398438 807.804688 807.804688 C 806.398438 809.210938 804.488281 810 802.5 810 L 7.5 810 C 5.511719 810 3.601562 809.210938 2.195312 807.804688 C 0.789062 806.398438 0 804.488281 0 802.5 L 0 7.5 C 0 5.511719 0.789062 3.601562 2.195312 2.195312 C 3.601562 0.789062 5.511719 0 7.5 0 Z M 7.5 0 " clip-rule="nonzero"/></clipPath><clipPath id="77c53e4d04"><rect x="0" width="810" y="0" height="810"/></clipPath><clipPath id="77d949ff51"><path d="M 338.003906 105.25 L 471.996094 105.25 L 471.996094 239.246094 L 338.003906 239.246094 Z M 338.003906 105.25 " clip-rule="nonzero"/></clipPath><clipPath id="dbae1a8280"><path d="M 405 105.25 C 368 105.25 338.003906 135.246094 338.003906 172.246094 C 338.003906 209.25 368 239.246094 405 239.246094 C 442 239.246094 471.996094 209.25 471.996094 172.246094 C 471.996094 135.246094 442 105.25 405 105.25 Z M 405 105.25 " clip-rule="nonzero"/></clipPath><clipPath id="c6b1d16a45"><path d="M 0.00390625 0.25 L 133.996094 0.25 L 133.996094 134.246094 L 0.00390625 134.246094 Z M 0.00390625 0.25 " clip-rule="nonzero"/></clipPath><clipPath id="723f64bf1e"><path d="M 67 0.25 C 30 0.25 0.00390625 30.246094 0.00390625 67.246094 C 0.00390625 104.25 30 134.246094 67 134.246094 C 104 134.246094 133.996094 104.25 133.996094 67.246094 C 133.996094 30.246094 104 0.25 67 0.25 Z M 67 0.25 " clip-rule="nonzero"/></clipPath><clipPath id="2a23dc41fa"><rect x="0" width="134" y="0" height="135"/></clipPath><clipPath id="949a010abf"><path d="M 262 265 L 544.070312 265 L 544.070312 704 L 262 704 Z M 262 265 " clip-rule="nonzero"/></clipPath><clipPath id="3a000af158"><rect x="0" width="810" y="0" height="810"/></clipPath></defs><rect x="-81" width="972" fill="#ffffff" y="-80.999999" height="971.999992" fill-opacity="1"/><rect x="-81" width="972" fill="#f4f4f4" y="-80.999999" height="971.999992" fill-opacity="1"/><g transform="matrix(1, 0, 0, 1, 0, 0.000000000000039746)"><g clip-path="url(#3a000af158)"><g clip-path="url(#f91c3f4924)"><g clip-path="url(#b0249c76cd)"><g transform="matrix(1, 0, 0, 1, 0, 0.000000000000039746)"><g clip-path="url(#77c53e4d04)"><g clip-path="url(#4235ad8a05)"><g clip-path="url(#6ab72be0b9)"><rect x="-294.84" width="1399.68" fill="#6437a0" y="-294.839997" height="1399.679988" fill-opacity="1"/></g></g></g></g></g></g><g clip-path="url(#77d949ff51)"><g clip-path="url(#dbae1a8280)"><g transform="matrix(1, 0, 0, 1, 338, 105)"><g clip-path="url(#2a23dc41fa)"><g clip-path="url(#c6b1d16a45)"><g clip-path="url(#723f64bf1e)"><path fill="#ffffff" d="M 0.00390625 0.25 L 133.996094 0.25 L 133.996094 134.246094 L 0.00390625 134.246094 Z M 0.00390625 0.25 " fill-opacity="1" fill-rule="nonzero"/></g></g></g></g></g></g><g clip-path="url(#949a010abf)"><path fill="#ffffff" d="M 457.800781 572.765625 L 520.078125 475.824219 C 547.550781 433.074219 549.398438 380.9375 525.007812 336.335938 C 500.621094 291.734375 455.746094 265.085938 404.910156 265.085938 C 354.074219 265.085938 309.199219 291.734375 284.808594 336.335938 C 260.421875 380.867188 262.269531 433.003906 289.742188 475.824219 L 351.949219 572.699219 C 297.414062 582.359375 262.679688 606.613281 262.679688 635.867188 C 262.75 675.054688 322.492188 703.554688 404.910156 703.554688 C 487.328125 703.554688 547.070312 675.054688 547.070312 635.867188 C 547.070312 606.472656 512.402344 582.289062 457.800781 572.765625 Z M 463.964844 394.226562 C 463.964844 426.703125 437.453125 453.148438 404.910156 453.148438 C 372.367188 453.148438 345.851562 426.703125 345.851562 394.226562 C 345.851562 361.683594 372.367188 335.171875 404.910156 335.171875 C 437.453125 335.171875 463.964844 361.617188 463.964844 394.226562 Z M 395.179688 639.976562 C 397.304688 643.332031 400.9375 645.320312 404.910156 645.320312 C 408.953125 645.320312 412.582031 643.332031 414.636719 640.042969 L 438.070312 603.527344 C 488.492188 609.488281 513.773438 627.4375 513.773438 635.867188 C 513.773438 646.140625 476.710938 670.257812 404.910156 670.257812 C 333.109375 670.257812 296.046875 646.140625 296.046875 635.867188 C 296.046875 627.4375 321.328125 609.558594 371.75 603.527344 Z M 395.179688 639.976562 " fill-opacity="1" fill-rule="nonzero"/></g></g></g></svg>