<svg xmlns="http://www.w3.org/2000/svg" xmlns:xlink="http://www.w3.org/1999/xlink" width="2000" zoomAndPan="magnify" viewBox="0 0 1500 1499.999933" height="2000" preserveAspectRatio="xMidYMid meet" version="1.0"><defs><clipPath id="134504e902"><path d="M 0 0 L 1500 0 L 1500 1500 L 0 1500 Z M 0 0 " clip-rule="nonzero"/></clipPath><clipPath id="6063f6c398"><path d="M 7.5 0 L 1492.5 0 C 1494.488281 0 1496.398438 0.789062 1497.804688 2.195312 C 1499.210938 3.601562 1500 5.511719 1500 7.5 L 1500 1492.5 C 1500 1494.488281 1499.210938 1496.398438 1497.804688 1497.804688 C 1496.398438 1499.210938 1494.488281 1500 1492.5 1500 L 7.5 1500 C 5.511719 1500 3.601562 1499.210938 2.195312 1497.804688 C 0.789062 1496.398438 0 1494.488281 0 1492.5 L 0 7.5 C 0 3.359375 3.359375 0 7.5 0 Z M 7.5 0 " clip-rule="nonzero"/></clipPath><clipPath id="eb0a36e93f"><path d="M 0 0 L 1500 0 L 1500 1500 L 0 1500 Z M 0 0 " clip-rule="nonzero"/></clipPath><clipPath id="3e24eaf247"><path d="M 7.5 0 L 1492.5 0 C 1494.488281 0 1496.398438 0.789062 1497.804688 2.195312 C 1499.210938 3.601562 1500 5.511719 1500 7.5 L 1500 1492.5 C 1500 1494.488281 1499.210938 1496.398438 1497.804688 1497.804688 C 1496.398438 1499.210938 1494.488281 1500 1492.5 1500 L 7.5 1500 C 5.511719 1500 3.601562 1499.210938 2.195312 1497.804688 C 0.789062 1496.398438 0 1494.488281 0 1492.5 L 0 7.5 C 0 3.359375 3.359375 0 7.5 0 Z M 7.5 0 " clip-rule="nonzero"/></clipPath><clipPath id="7bc4a57fb6"><rect x="0" width="1500" y="0" height="1500"/></clipPath><clipPath id="ab4ebe1840"><path d="M 625.929688 194.90625 L 874.070312 194.90625 L 874.070312 443.046875 L 625.929688 443.046875 Z M 625.929688 194.90625 " clip-rule="nonzero"/></clipPath><clipPath id="a385ff6e96"><path d="M 750 194.90625 C 681.476562 194.90625 625.929688 250.457031 625.929688 318.976562 C 625.929688 387.5 681.476562 443.046875 750 443.046875 C 818.523438 443.046875 874.070312 387.5 874.070312 318.976562 C 874.070312 250.457031 818.523438 194.90625 750 194.90625 Z M 750 194.90625 " clip-rule="nonzero"/></clipPath><clipPath id="c60de5f836"><path d="M 0.929688 0.90625 L 249.070312 0.90625 L 249.070312 249.046875 L 0.929688 249.046875 Z M 0.929688 0.90625 " clip-rule="nonzero"/></clipPath><clipPath id="1ead758d69"><path d="M 125 0.90625 C 56.476562 0.90625 0.929688 56.457031 0.929688 124.976562 C 0.929688 193.5 56.476562 249.046875 125 249.046875 C 193.523438 249.046875 249.070312 193.5 249.070312 124.976562 C 249.070312 56.457031 193.523438 0.90625 125 0.90625 Z M 125 0.90625 " clip-rule="nonzero"/></clipPath><clipPath id="50f6d5eb16"><rect x="0" width="250" y="0" height="250"/></clipPath><clipPath id="9dcc536d49"><path d="M 486 490 L 1007.539062 490 L 1007.539062 1303 L 486 1303 Z M 486 490 " clip-rule="nonzero"/></clipPath><clipPath id="8af1967030"><rect x="0" width="1500" y="0" height="1500"/></clipPath></defs><rect x="-150" width="1800" fill="#ffffff" y="-149.999993" height="1799.99992" fill-opacity="1"/><rect x="-150" width="1800" fill="#f4f4f4" y="-149.999993" height="1799.99992" fill-opacity="1"/><g transform="matrix(1, 0, 0, 1, 0, 0.000000000000112861)"><g clip-path="url(#8af1967030)"><g clip-path="url(#134504e902)"><g clip-path="url(#6063f6c398)"><g transform="matrix(1, 0, 0, 1, 0, 0.000000000000112861)"><g clip-path="url(#7bc4a57fb6)"><g clip-path="url(#eb0a36e93f)"><g clip-path="url(#3e24eaf247)"><rect x="-546" width="2592" fill="#9854cb" y="-545.999976" height="2591.999885" fill-opacity="1"/></g></g></g></g></g></g><g clip-path="url(#ab4ebe1840)"><g clip-path="url(#a385ff6e96)"><g transform="matrix(1, 0, 0, 1, 625, 194)"><g clip-path="url(#50f6d5eb16)"><g clip-path="url(#c60de5f836)"><g clip-path="url(#1ead758d69)"><path fill="#ffffff" d="M 0.929688 0.90625 L 249.070312 0.90625 L 249.070312 249.046875 L 0.929688 249.046875 Z M 0.929688 0.90625 " fill-opacity="1" fill-rule="nonzero"/></g></g></g></g></g></g><g clip-path="url(#9dcc536d49)"><path fill="#ffffff" d="M 847.777344 1060.679688 L 963.105469 881.15625 C 1013.980469 801.988281 1017.40625 705.4375 972.238281 622.84375 C 927.074219 540.25 843.972656 490.898438 749.832031 490.898438 C 655.695312 490.898438 572.59375 540.25 527.425781 622.84375 C 482.257812 705.308594 485.683594 801.859375 536.558594 881.15625 L 651.761719 1060.550781 C 550.769531 1078.441406 486.445312 1123.355469 486.445312 1177.527344 C 486.574219 1250.097656 597.207031 1302.878906 749.832031 1302.878906 C 902.460938 1302.878906 1013.09375 1250.097656 1013.09375 1177.527344 C 1013.09375 1123.101562 948.894531 1078.316406 847.777344 1060.679688 Z M 859.195312 730.050781 C 859.195312 790.1875 810.097656 839.160156 749.832031 839.160156 C 689.566406 839.160156 640.46875 790.1875 640.46875 730.050781 C 640.46875 669.785156 689.566406 620.6875 749.832031 620.6875 C 810.097656 620.6875 859.195312 669.660156 859.195312 730.050781 Z M 731.816406 1185.140625 C 735.75 1191.359375 742.472656 1195.035156 749.832031 1195.035156 C 757.316406 1195.035156 764.042969 1191.359375 767.847656 1185.269531 L 811.238281 1117.644531 C 904.617188 1128.683594 951.433594 1161.921875 951.433594 1177.527344 C 951.433594 1196.558594 882.792969 1241.21875 749.832031 1241.21875 C 616.871094 1241.21875 548.234375 1196.558594 548.234375 1177.527344 C 548.234375 1161.921875 595.046875 1128.808594 688.425781 1117.644531 Z M 731.816406 1185.140625 " fill-opacity="1" fill-rule="nonzero"/></g></g></g></svg>